<svg xmlns="http://www.w3.org/2000/svg" xmlns:xlink="http://www.w3.org/1999/xlink" version="1.1" data-diagram-type="DESCRIPTION" style="width:1019px;height:969px;background:#FFFFFF;" width="1019px" height="969px" viewBox="0 0 1019 969" zoomAndPan="magnify" preserveAspectRatio="none" contentStyleType="text/css"><?plantuml 1.2026.9beta4?><defs/><g font-family="sans-serif" lengthAdjust="spacing"><g class="title" data-source-line="5"><text x="295.837" y="22.995" fill="#000" font-size="14" textLength="420.622" font-weight="700">Diagrama de Componentes — Backend API (apps/api)</text></g><!--cluster api_boundary--><g class="cluster" data-qualified-name="api_boundary" id="ent0001" data-source-line="1690"><rect x="7" y="44.297" width="475" height="580.82" fill="none" style="stroke:#444;stroke-width:1;stroke-dasharray:7,7;"/><text x="156.207" y="61.148" fill="#444" font-size="16" textLength="176.586" font-weight="700">FastAPI Application</text><text x="206.792" y="76.061" fill="#444" font-size="12" textLength="75.416" font-weight="700">[container]</text></g><!--entity routers--><g class="entity" data-qualified-name="api_boundary.routers" id="ent0002" data-source-line="83"><rect x="134.27" y="95.297" width="193.455" height="117.781" fill="#85BBF0" style="stroke:#78A8D8;stroke-width:0.5;"/><text x="177.873" y="120.148" fill="#000" font-size="16" textLength="30.063" font-weight="700">API</text><text x="207.935" y="120.148" fill="#000" font-size="16" font-weight="700"> </text><text x="213.505" y="120.148" fill="#000" font-size="16" textLength="70.617" font-weight="700">Routers</text><text x="179.031" y="135.061" fill="#000" font-size="12" textLength="48.879" font-style="italic">[FastAPI</text><text x="227.91" y="135.061" fill="#000" font-size="12" font-style="italic"> </text><text x="231.724" y="135.061" fill="#000" font-size="12" textLength="51.24" font-style="italic">Routers]</text><text x="228.772" y="150.886" fill="#000" font-size="14"> </text><text x="170.329" y="167.183" fill="#000" font-size="14" textLength="39.655">Rotas</text><text x="209.984" y="167.183" fill="#000" font-size="14"> </text><text x="214.434" y="167.183" fill="#000" font-size="14" textLength="31.801">para</text><text x="246.235" y="167.183" fill="#000" font-size="14"> </text><text x="250.685" y="167.183" fill="#000" font-size="14" textLength="40.981">/auth,</text><text x="144.27" y="183.479" fill="#000" font-size="14" textLength="87.739">/classrooms,</text><text x="232.009" y="183.479" fill="#000" font-size="14"> </text><text x="236.459" y="183.479" fill="#000" font-size="14" textLength="31.418">/me,</text><text x="267.877" y="183.479" fill="#000" font-size="14"> </text><text x="272.328" y="183.479" fill="#000" font-size="14" textLength="45.397">/news,</text><text x="170.862" y="199.776" fill="#000" font-size="14" textLength="82.469">/restaurant,</text><text x="253.331" y="199.776" fill="#000" font-size="14"> </text><text x="257.781" y="199.776" fill="#000" font-size="14" textLength="33.353">/jobs</text></g><!--entity session--><g class="entity" data-qualified-name="api_boundary.session" id="ent0003" data-source-line="83"><rect x="22.83" y="297.397" width="216.349" height="117.781" fill="#85BBF0" style="stroke:#78A8D8;stroke-width:0.5;"/><text x="57.946" y="322.248" fill="#000" font-size="16" textLength="69.289" font-weight="700">Session</text><text x="127.235" y="322.248" fill="#000" font-size="16" font-weight="700"> </text><text x="132.805" y="322.248" fill="#000" font-size="16" textLength="71.258" font-weight="700">Handler</text><text x="92.476" y="337.161" fill="#000" font-size="12" textLength="27.668" font-style="italic">[JWE</text><text x="120.144" y="337.161" fill="#000" font-size="12" font-style="italic"> </text><text x="123.958" y="337.161" fill="#000" font-size="12" font-style="italic">/</text><text x="128.001" y="337.161" fill="#000" font-size="12" font-style="italic"> </text><text x="131.816" y="337.161" fill="#000" font-size="12" textLength="37.717" font-style="italic">HKDF]</text><text x="128.779" y="352.986" fill="#000" font-size="14"> </text><text x="32.83" y="369.283" fill="#000" font-size="14" textLength="79.092">Criptografa</text><text x="111.922" y="369.283" fill="#000" font-size="14"> </text><text x="116.372" y="369.283" fill="#000" font-size="14">e</text><text x="124.985" y="369.283" fill="#000" font-size="14"> </text><text x="129.435" y="369.283" fill="#000" font-size="14" textLength="48.351">decifra</text><text x="177.786" y="369.283" fill="#000" font-size="14"> </text><text x="182.236" y="369.283" fill="#000" font-size="14" textLength="46.942">tokens</text><text x="57.832" y="385.579" fill="#000" font-size="14" textLength="22.251">em</text><text x="80.083" y="385.579" fill="#000" font-size="14"> </text><text x="84.534" y="385.579" fill="#000" font-size="14" textLength="52.732">cookies</text><text x="137.266" y="385.579" fill="#000" font-size="14"> </text><text x="141.716" y="385.579" fill="#000" font-size="14" textLength="62.46">HttpOnly</text><text x="77.123" y="401.876" fill="#000" font-size="14" textLength="107.762">(AES-256-GCM)</text></g><!--entity services--><g class="entity" data-qualified-name="api_boundary.services" id="ent0004" data-source-line="83"><rect x="273.86" y="288.077" width="192.286" height="136.406" fill="#85BBF0" style="stroke:#78A8D8;stroke-width:0.5;"/><text x="322.222" y="312.928" fill="#000" font-size="16" textLength="76.039" font-weight="700">Services</text><text x="398.261" y="312.928" fill="#000" font-size="16" font-weight="700"> </text><text x="403.831" y="312.928" fill="#000" font-size="16" font-weight="700">&amp;</text><text x="317.839" y="331.553" fill="#000" font-size="16" textLength="104.328" font-weight="700">SyncEngine</text><text x="297.526" y="346.466" fill="#000" font-size="12" textLength="46.277" font-style="italic">[Python</text><text x="343.803" y="346.466" fill="#000" font-size="12" font-style="italic"> </text><text x="347.617" y="346.466" fill="#000" font-size="12" textLength="35.766" font-style="italic">Async</text><text x="383.383" y="346.466" fill="#000" font-size="12" font-style="italic"> </text><text x="387.197" y="346.466" fill="#000" font-size="12" textLength="55.283" font-style="italic">Services]</text><text x="367.778" y="362.291" fill="#000" font-size="14"> </text><text x="327.829" y="378.588" fill="#000" font-size="14" textLength="84.349">Implementa</text><text x="283.86" y="394.884" fill="#000" font-size="14" textLength="159.223">Stale-While-Revalidate</text><text x="443.083" y="394.884" fill="#000" font-size="14"> </text><text x="447.533" y="394.884" fill="#000" font-size="14">e</text><text x="306.815" y="411.181" fill="#000" font-size="14" textLength="44.885">regras</text><text x="351.7" y="411.181" fill="#000" font-size="14"> </text><text x="356.15" y="411.181" fill="#000" font-size="14" textLength="17.5">de</text><text x="373.65" y="411.181" fill="#000" font-size="14"> </text><text x="378.1" y="411.181" fill="#000" font-size="14" textLength="55.091">negócio</text></g><!--entity repos--><g class="entity" data-qualified-name="api_boundary.repos" id="ent0005" data-source-line="83"><rect x="202.4" y="507.637" width="217.203" height="101.484" fill="#85BBF0" style="stroke:#78A8D8;stroke-width:0.5;"/><text x="254.494" y="532.488" fill="#000" font-size="16" textLength="113.016" font-weight="700">Repositories</text><text x="268.486" y="547.401" fill="#000" font-size="12" textLength="85.031" font-style="italic">[SQLAlchemy]</text><text x="308.776" y="563.226" fill="#000" font-size="14"> </text><text x="212.4" y="579.523" fill="#000" font-size="14" textLength="49.041">Acesso</text><text x="261.441" y="579.523" fill="#000" font-size="14"> </text><text x="265.891" y="579.523" fill="#000" font-size="14" textLength="24.438">aos</text><text x="290.33" y="579.523" fill="#000" font-size="14"> </text><text x="294.78" y="579.523" fill="#000" font-size="14" textLength="42.212">dados</text><text x="336.992" y="579.523" fill="#000" font-size="14"> </text><text x="341.442" y="579.523" fill="#000" font-size="14" textLength="22.251">em</text><text x="363.693" y="579.523" fill="#000" font-size="14"> </text><text x="368.143" y="579.523" fill="#000" font-size="14" textLength="41.46">cache</text><text x="259.681" y="595.819" fill="#000" font-size="14" textLength="17.438">no</text><text x="277.119" y="595.819" fill="#000" font-size="14"> </text><text x="281.569" y="595.819" fill="#000" font-size="14" textLength="80.753">PostgreSQL</text></g><!--entity sigaa_client--><g class="entity" data-qualified-name="sigaa_client" id="ent0006" data-source-line="95"><rect x="497.94" y="507.637" width="200.127" height="101.484" fill="#CCC" style="stroke:#BFBFBF;stroke-width:0.5;"/><text x="545.484" y="532.488" fill="#000" font-size="16" textLength="105.039" font-weight="700">sigaa-client</text><text x="545.372" y="547.401" fill="#000" font-size="12" textLength="46.277" font-style="italic">[Python</text><text x="591.649" y="547.401" fill="#000" font-size="12" font-style="italic"> </text><text x="595.463" y="547.401" fill="#000" font-size="12" textLength="55.172" font-style="italic">Package]</text><text x="595.778" y="563.226" fill="#000" font-size="14"> </text><text x="510.931" y="579.523" fill="#000" font-size="14" textLength="70.424">Abstração</text><text x="581.355" y="579.523" fill="#000" font-size="14"> </text><text x="585.805" y="579.523" fill="#000" font-size="14" textLength="17.452">do</text><text x="603.257" y="579.523" fill="#000" font-size="14"> </text><text x="607.707" y="579.523" fill="#000" font-size="14" textLength="43.019">SIGAA</text><text x="650.726" y="579.523" fill="#000" font-size="14"> </text><text x="655.176" y="579.523" fill="#000" font-size="14" textLength="29.9">com</text><text x="507.94" y="595.819" fill="#000" font-size="14" textLength="53.478">suporte</text><text x="561.418" y="595.819" fill="#000" font-size="14"> </text><text x="565.868" y="595.819" fill="#000" font-size="14">a</text><text x="574.447" y="595.819" fill="#000" font-size="14"> </text><text x="578.897" y="595.819" fill="#000" font-size="14" textLength="70.588">ViewState</text><text x="649.485" y="595.819" fill="#000" font-size="14"> </text><text x="653.935" y="595.819" fill="#000" font-size="14">e</text><text x="662.548" y="595.819" fill="#000" font-size="14"> </text><text x="666.999" y="595.819" fill="#000" font-size="14" textLength="21.068">JSF</text></g><!--entity unb_browser--><g class="entity" data-qualified-name="unb_browser" id="ent0007" data-source-line="95"><rect x="733.53" y="499.487" width="190.946" height="117.781" fill="#CCC" style="stroke:#BFBFBF;stroke-width:0.5;"/><text x="771.874" y="524.338" fill="#000" font-size="16" textLength="114.258" font-weight="700">unb-browser</text><text x="776.371" y="539.251" fill="#000" font-size="12" textLength="46.277" font-style="italic">[Python</text><text x="822.649" y="539.251" fill="#000" font-size="12" font-style="italic"> </text><text x="826.463" y="539.251" fill="#000" font-size="12" textLength="55.172" font-style="italic">Package]</text><text x="826.778" y="555.076" fill="#000" font-size="14"> </text><text x="761.577" y="571.373" fill="#000" font-size="14" textLength="54.175">Scraper</text><text x="815.752" y="571.373" fill="#000" font-size="14"> </text><text x="820.202" y="571.373" fill="#000" font-size="14" textLength="17.452">do</text><text x="837.654" y="571.373" fill="#000" font-size="14"> </text><text x="842.104" y="571.373" fill="#000" font-size="14" textLength="19.975">RU</text><text x="862.079" y="571.373" fill="#000" font-size="14"> </text><text x="866.529" y="571.373" fill="#000" font-size="14" textLength="29.9">com</text><text x="743.53" y="587.669" fill="#000" font-size="14" textLength="61.564">extração</text><text x="805.094" y="587.669" fill="#000" font-size="14"> </text><text x="809.545" y="587.669" fill="#000" font-size="14" textLength="79.728">geométrica</text><text x="889.272" y="587.669" fill="#000" font-size="14"> </text><text x="893.722" y="587.669" fill="#000" font-size="14" textLength="20.754">via</text><text x="788.381" y="603.966" fill="#000" font-size="14" textLength="81.245">pdfplumber</text></g><!--entity db--><g class="entity" data-qualified-name="db" id="ent0008" data-source-line="80"><path d="M217.16,707.077 C217.16,697.077 311.005,697.077 311.005,697.077 C311.005,697.077 404.849,697.077 404.849,707.077 L404.849,748.671 C404.849,758.671 311.005,758.671 311.005,758.671 C311.005,758.671 217.16,758.671 217.16,748.671 L217.16,707.077" style="stroke:#3C7FC0;stroke-width:0.5;" fill="#438DD5"/><path d="M217.16,707.077 C217.16,717.077 311.005,717.077 311.005,717.077 C311.005,717.077 404.849,717.077 404.849,707.077" style="stroke:#3C7FC0;stroke-width:0.5;" fill="none"/><text x="258.302" y="735.928" fill="#FFF" font-size="16" textLength="105.406" font-weight="700">PostgreSQL</text><text x="227.16" y="750.841" fill="#FFF" font-size="12" textLength="41.813" font-style="italic">[Banco</text><text x="268.972" y="750.841" fill="#FFF" font-size="12" font-style="italic"> </text><text x="272.787" y="750.841" fill="#FFF" font-size="12" textLength="15" font-style="italic">de</text><text x="287.787" y="750.841" fill="#FFF" font-size="12" font-style="italic"> </text><text x="291.601" y="750.841" fill="#FFF" font-size="12" textLength="36.182" font-style="italic">dados</text><text x="327.783" y="750.841" fill="#FFF" font-size="12" font-style="italic"> </text><text x="331.597" y="750.841" fill="#FFF" font-size="12" textLength="63.252" font-style="italic">relacional]</text></g><!--entity sigaa--><g class="entity" data-qualified-name="sigaa" id="ent0009" data-source-line="419"><rect x="534" y="692.267" width="128.008" height="71.219" fill="#999" style="stroke:#8A8A8A;stroke-width:0.5;"/><text x="544" y="717.118" fill="#FFF" font-size="16" textLength="55.375" font-weight="700">SIGAA</text><text x="599.375" y="717.118" fill="#FFF" font-size="16" font-weight="700"> </text><text x="604.945" y="717.118" fill="#FFF" font-size="16" font-weight="700">/</text><text x="610.789" y="717.118" fill="#FFF" font-size="16" font-weight="700"> </text><text x="616.359" y="717.118" fill="#FFF" font-size="16" textLength="35.648" font-weight="700">CAS</text><text x="595.779" y="733.887" fill="#FFF" font-size="14"> </text><text x="552.097" y="750.184" fill="#FFF" font-size="14" textLength="58.639">Servidor</text><text x="610.736" y="750.184" fill="#FFF" font-size="14"> </text><text x="615.186" y="750.184" fill="#FFF" font-size="14" textLength="28.725">UnB</text></g><!--entity ru_site--><g class="entity" data-qualified-name="ru_site" id="ent0010" data-source-line="419"><rect x="770.5" y="692.267" width="117.002" height="71.219" fill="#999" style="stroke:#8A8A8A;stroke-width:0.5;"/><text x="781.798" y="717.118" fill="#FFF" font-size="16" textLength="35.508" font-weight="700">Site</text><text x="817.306" y="717.118" fill="#FFF" font-size="16" font-weight="700"> </text><text x="822.876" y="717.118" fill="#FFF" font-size="16" textLength="22.445" font-weight="700">do</text><text x="845.321" y="717.118" fill="#FFF" font-size="16" font-weight="700"> </text><text x="850.892" y="717.118" fill="#FFF" font-size="16" textLength="25.313" font-weight="700">RU</text><text x="826.776" y="733.887" fill="#FFF" font-size="14"> </text><text x="780.5" y="750.184" fill="#FFF" font-size="14" textLength="34.569">PDFs</text><text x="815.069" y="750.184" fill="#FFF" font-size="14"> </text><text x="819.52" y="750.184" fill="#FFF" font-size="14" textLength="57.982">públicos</text></g><!--link routers to session--><g class="link" data-entity-1="ent0002" data-entity-2="ent0003" id="lnk11" data-source-line="1803" data-link-type="dependency"><path d="M153.55,213.487 C145.73,222.537 138.89,232.447 134,243.077 C126.39,259.637 123.958,271.067 123.918,289.067" style="stroke:#666;stroke-width:1;" fill="none" id="routers-to-session"/><polygon points="123.9,297.067,126.918,289.074,120.918,289.06,123.9,297.067" fill="#666" style="stroke:#666;stroke-width:1;stroke-linejoin:miter;stroke-miterlimit:10;"/><text x="135" y="255.216" fill="#666" font-size="12" textLength="42.299" font-weight="700">Valida</text><text x="177.299" y="255.216" fill="#666" font-size="12" font-weight="700"> </text><text x="181.477" y="255.216" fill="#666" font-size="12" font-weight="700">e</text><text x="189.615" y="255.216" fill="#666" font-size="12" font-weight="700"> </text><text x="193.793" y="255.216" fill="#666" font-size="12" textLength="46.764" font-weight="700">renova</text><text x="240.557" y="255.216" fill="#666" font-size="12" font-weight="700"> </text><text x="244.734" y="255.216" fill="#666" font-size="12" textLength="45.908" font-weight="700">sessão</text></g><!--link routers to services--><g class="link" data-entity-1="ent0002" data-entity-2="ent0004" id="lnk12" data-source-line="1803" data-link-type="dependency"><path d="M274.02,213.577 C281.1,223.377 288.3,233.487 295,243.077 C304.99,257.397 311.066,266.232 320.966,281.002" style="stroke:#666;stroke-width:1;" fill="none" id="routers-to-services"/><polygon points="325.42,287.647,323.458,279.331,318.474,282.672,325.42,287.647" fill="#666" style="stroke:#666;stroke-width:1;stroke-linejoin:miter;stroke-miterlimit:10;"/><text x="305" y="255.216" fill="#666" font-size="12" textLength="53.566" font-weight="700">Executa</text><text x="358.566" y="255.216" fill="#666" font-size="12" font-weight="700"> </text><text x="362.744" y="255.216" fill="#666" font-size="12" textLength="69.627" font-weight="700">operações</text></g><!--link services to repos--><g class="link" data-entity-1="ent0004" data-entity-2="ent0005" id="lnk13" data-source-line="1803" data-link-type="dependency"><path d="M350.11,424.747 C342.15,451.747 335.405,474.634 328.035,499.604" style="stroke:#666;stroke-width:1;" fill="none" id="services-to-repos"/><polygon points="325.77,507.277,330.912,500.453,325.157,498.755,325.77,507.277" fill="#666" style="stroke:#666;stroke-width:1;stroke-linejoin:miter;stroke-miterlimit:10;"/><text x="342" y="466.626" fill="#666" font-size="12" textLength="59.227" font-weight="700">Consulta</text><text x="401.227" y="466.626" fill="#666" font-size="12" font-weight="700"> </text><text x="405.404" y="466.626" fill="#666" font-size="12" font-weight="700">/</text><text x="409.787" y="466.626" fill="#666" font-size="12" font-weight="700"> </text><text x="413.965" y="466.626" fill="#666" font-size="12" textLength="38.525" font-weight="700">grava</text><text x="452.49" y="466.626" fill="#666" font-size="12" font-weight="700"> </text><text x="456.668" y="466.626" fill="#666" font-size="12" textLength="39.006" font-weight="700">cache</text></g><!--link repos to db--><g class="link" data-entity-1="ent0005" data-entity-2="ent0008" id="lnk14" data-source-line="1803" data-link-type="dependency"><path d="M311,609.177 C311,637.727 311,664.607 311,688.947" style="stroke:#666;stroke-width:1;" fill="none" id="repos-to-db"/><polygon points="311,696.947,314,688.947,308,688.947,311,696.947" fill="#666" style="stroke:#666;stroke-width:1;stroke-linejoin:miter;stroke-miterlimit:10;"/><text x="312" y="659.406" fill="#666" font-size="12" textLength="26.49" font-weight="700">SQL</text><text x="338.49" y="659.406" fill="#666" font-size="12" font-weight="700"> </text><text x="342.668" y="659.406" fill="#666" font-size="12" textLength="52.195" font-weight="700">Queries</text></g><!--link services to sigaa_client--><g class="link" data-entity-1="ent0004" data-entity-2="ent0006" id="lnk15" data-source-line="1803" data-link-type="dependency"><path d="M466.3,423.477 C479.3,433.467 492.21,443.957 504,454.487 C522.05,470.607 535.01,483.861 550.6,501.311" style="stroke:#666;stroke-width:1;" fill="none" id="services-to-sigaa_client"/><polygon points="555.93,507.277,552.837,499.312,548.363,503.31,555.93,507.277" fill="#666" style="stroke:#666;stroke-width:1;stroke-linejoin:miter;stroke-miterlimit:10;"/><text x="518" y="466.626" fill="#666" font-size="12" textLength="50.174" font-weight="700">Solicita</text><text x="568.174" y="466.626" fill="#666" font-size="12" font-weight="700"> </text><text x="572.352" y="466.626" fill="#666" font-size="12" textLength="40.664" font-weight="700">dados</text><text x="613.016" y="466.626" fill="#666" font-size="12" font-weight="700"> </text><text x="617.193" y="466.626" fill="#666" font-size="12" textLength="16.834" font-weight="700">do</text><text x="634.027" y="466.626" fill="#666" font-size="12" font-weight="700"> </text><text x="638.205" y="466.626" fill="#666" font-size="12" textLength="41.531" font-weight="700">SIGAA</text></g><!--link services to unb_browser--><g class="link" data-entity-1="ent0004" data-entity-2="ent0007" id="lnk16" data-source-line="1803" data-link-type="dependency"><path d="M466.4,377.847 C531.16,393.777 617.26,419.127 688,454.487 C712.4,466.677 730.636,478.262 752.366,494.322" style="stroke:#666;stroke-width:1;" fill="none" id="services-to-unb_browser"/><polygon points="758.8,499.077,754.149,491.909,750.583,496.735,758.8,499.077" fill="#666" style="stroke:#666;stroke-width:1;stroke-linejoin:miter;stroke-miterlimit:10;"/><text x="713" y="466.626" fill="#666" font-size="12" textLength="50.174" font-weight="700">Solicita</text><text x="763.174" y="466.626" fill="#666" font-size="12" font-weight="700"> </text><text x="767.352" y="466.626" fill="#666" font-size="12" textLength="58.764" font-weight="700">cardápio</text><text x="826.115" y="466.626" fill="#666" font-size="12" font-weight="700"> </text><text x="830.293" y="466.626" fill="#666" font-size="12" textLength="16.834" font-weight="700">do</text><text x="847.127" y="466.626" fill="#666" font-size="12" font-weight="700"> </text><text x="851.305" y="466.626" fill="#666" font-size="12" textLength="18.984" font-weight="700">RU</text></g><!--link sigaa_client to sigaa--><g class="link" data-entity-1="ent0006" data-entity-2="ent0009" id="lnk17" data-source-line="1803" data-link-type="dependency"><path d="M598,609.177 C598,635.797 598,659.917 598,683.877" style="stroke:#666;stroke-width:1;" fill="none" id="sigaa_client-to-sigaa"/><polygon points="598,691.877,601,683.877,595,683.877,598,691.877" fill="#666" style="stroke:#666;stroke-width:1;stroke-linejoin:miter;stroke-miterlimit:10;"/><text x="599" y="659.406" fill="#666" font-size="12" textLength="69.879" font-weight="700">Chamadas</text><text x="668.879" y="659.406" fill="#666" font-size="12" font-weight="700"> </text><text x="673.057" y="659.406" fill="#666" font-size="12" textLength="60.896" font-weight="700">HTTP/JSF</text></g><!--link unb_browser to ru_site--><g class="link" data-entity-1="ent0007" data-entity-2="ent0010" id="lnk18" data-source-line="1803" data-link-type="dependency"><path d="M829,617.487 C829,642.247 829,662.307 829,683.817" style="stroke:#666;stroke-width:1;" fill="none" id="unb_browser-to-ru_site"/><polygon points="829,691.817,832,683.817,826,683.817,829,691.817" fill="#666" style="stroke:#666;stroke-width:1;stroke-linejoin:miter;stroke-miterlimit:10;"/><text x="830" y="659.406" fill="#666" font-size="12" textLength="66.879" font-weight="700">Download</text><text x="896.879" y="659.406" fill="#666" font-size="12" font-weight="700"> </text><text x="901.057" y="659.406" fill="#666" font-size="12" font-weight="700">e</text><text x="909.195" y="659.406" fill="#666" font-size="12" font-weight="700"> </text><text x="913.373" y="659.406" fill="#666" font-size="12" textLength="37.887" font-weight="700">parse</text><text x="951.26" y="659.406" fill="#666" font-size="12" font-weight="700"> </text><text x="955.438" y="659.406" fill="#666" font-size="12" textLength="16.729" font-weight="700">de</text><text x="972.166" y="659.406" fill="#666" font-size="12" font-weight="700"> </text><text x="976.344" y="659.406" fill="#666" font-size="12" textLength="26.953" font-weight="700">PDF</text></g><g class="legend" data-source-line="66"><text x="844.646" y="809.666" fill="#000" font-size="14" textLength="57.921" font-weight="700">Legend</text><text x="902.567" y="809.666" fill="#FFF" font-size="14"> </text><rect x="844.646" y="812.968" width="150.65" height="16.297" fill="#08427B" style="stroke:none;"/><text x="849.097" y="825.963" fill="#FFF" font-size="14" textLength="47.988">person</text><rect x="844.646" y="829.264" width="150.65" height="16.297" fill="#1168BD" style="stroke:none;"/><text x="849.097" y="842.259" fill="#FFF" font-size="14" textLength="50.613">system</text><rect x="844.646" y="845.561" width="150.65" height="16.297" fill="#438DD5" style="stroke:none;"/><text x="849.097" y="858.556" fill="#FFF" font-size="14" textLength="66.336">container</text><rect x="844.646" y="861.858" width="150.65" height="16.297" fill="#85BBF0" style="stroke:none;"/><text x="849.097" y="874.853" fill="#FFF" font-size="14" textLength="79.201">component</text><rect x="844.646" y="878.155" width="150.65" height="16.297" fill="#686868" style="stroke:none;"/><text x="849.097" y="891.15" fill="#FFF" font-size="14" textLength="110.537">external person</text><rect x="844.646" y="894.452" width="150.65" height="16.297" fill="#999" style="stroke:none;"/><text x="849.097" y="907.447" fill="#FFF" font-size="14" textLength="113.162">external system</text><rect x="844.646" y="910.749" width="150.65" height="16.297" fill="#B3B3B3" style="stroke:none;"/><text x="849.097" y="923.744" fill="#FFF" font-size="14" textLength="128.885">external container</text><rect x="844.646" y="927.046" width="150.65" height="16.297" fill="#CCC" style="stroke:none;"/><text x="849.097" y="940.041" fill="#FFF" font-size="14" textLength="141.75">external component</text><line x1="844.646" y1="796.671" x2="995.297" y2="796.671" style="stroke:#FFF;stroke-width:1;"/><line x1="844.646" y1="812.968" x2="995.297" y2="812.968" style="stroke:#FFF;stroke-width:1;"/><line x1="844.646" y1="829.264" x2="995.297" y2="829.264" style="stroke:#FFF;stroke-width:1;"/><line x1="844.646" y1="845.561" x2="995.297" y2="845.561" style="stroke:#FFF;stroke-width:1;"/><line x1="844.646" y1="861.858" x2="995.297" y2="861.858" style="stroke:#FFF;stroke-width:1;"/><line x1="844.646" y1="878.155" x2="995.297" y2="878.155" style="stroke:#FFF;stroke-width:1;"/><line x1="844.646" y1="894.452" x2="995.297" y2="894.452" style="stroke:#FFF;stroke-width:1;"/><line x1="844.646" y1="910.749" x2="995.297" y2="910.749" style="stroke:#FFF;stroke-width:1;"/><line x1="844.646" y1="927.046" x2="995.297" y2="927.046" style="stroke:#FFF;stroke-width:1;"/><line x1="844.646" y1="943.343" x2="995.297" y2="943.343" style="stroke:#FFF;stroke-width:1;"/><line x1="844.646" y1="796.671" x2="844.646" y2="943.343" style="stroke:#FFF;stroke-width:1;"/><line x1="995.297" y1="796.671" x2="995.297" y2="943.343" style="stroke:#FFF;stroke-width:1;"/></g><?plantuml-src RLJDRjj64BxhAIOw518GXK3Hvj0RBScMKwTHH3j6JyIG74lRB7SMkqlBGX2W3v4N2788UYvwwLLlqYVfBAaVomaF96TtvfkPRxxTPygKkga8LY5O_qkIE5o_MAgmQeh6aolP13BXHSbrOZMQqDHwv4EbLP6CVnhDuzBDwwkaHX_8oL8-vjgoYJ5MV7kzg_JtDpVN-UtbzIo_cbvCVviCXhrUK44JJ1Gk7TO8alyGHnx--_CJd67vdam5wVmI1cYjJz0gYHnBHQWCkVoC6rEXsyYkoekTyHpwvr9BZ4gjrQh4eDZqX_2X1_8SiWmSDrAn5__ek-Yi_gFmHqiB3kZ1eaD8i0chvv2K6hrtpBKW93N9oz0w_Zlo0Hidl8Zn1nU-FtoIsPFtKfFWPjqVpD1KcbnCzUfs2WdCVfsSHslib0qi7DqXaB1KgZkf8R0muu5gA9dVAo5i9iDxO_G61kaq6_tuyylHnVZry3kPtRqgoRUfkr_u0RADAQTcAPp6bFDDM4b9gPTLs7l5ZSlQQge51Y4Bg6bqkrBoNj0zQbLX8AdGaTJgupWDBRT_bug_gS6HvLZ08dvLOASw-EpjLQhB5TMRQAMIr3CW2nXMt3MBiWs6OSu-B1r9XA1_Z9BOWUVJ1sbIBH7pKYkA8-YtvgWp7_Kt5tdXikquBNnmkFsw_S9GCMIN5sagpDRW6yjE-a9ufsWjJRSzlihE9UrfpiOKUU5uBGGBe5YZdVNzZ5dfq9ABsHOtRIfwE9Im9AwtVmKdqeLxXM2hEwkRkX2mn_AV58EgYEX7CiGwGrDovBzZpP566O91BR7PHiveVUGe5jBsci0upVfxKLJiuCQSdGQu9fTXKVIHJrTuszlaN0x6zjz2JXf7gVSMf8zdwoZrTwr8MeaOliTsHxgLY2S11uLE7wXiH6miJ4Lg_Y6_ypuwxSKahFX6YtC28a21RxMo1--SMhQ49dZRK2kwfs1FX9EnzAG4iwDohunlmavdVuWgqLNRprRnZgnTs4cE_HZ6Axa4Apaui-lhUT89B7gVG1z7CE6rqOoLi2btaeyN0yWW-iF_0G00?></g></svg>